<?xml version="1.0" encoding="UTF-8" standalone="no"?>
<!DOCTYPE svg PUBLIC "-//W3C//DTD SVG 1.1//EN" "http://www.w3.org/Graphics/SVG/1.1/DTD/svg11.dtd">
<svg width="100%" height="100%" viewBox="0 0 120 48" version="1.1" xmlns="http://www.w3.org/2000/svg" xmlns:xlink="http://www.w3.org/1999/xlink" xml:space="preserve" xmlns:serif="http://www.serif.com/" style="fill-rule:evenodd;clip-rule:evenodd;stroke-linejoin:round;stroke-miterlimit:2;">
    <g id="logo" transform="matrix(0.663603,0,0,0.663603,261.41,-514.062)">
        <path id="path4701" d="M-226.306,774.708C-227.979,787.586 -232.728,796.02 -236.351,800.783L-239.178,788.537L-244.303,788.537L-240.062,804.853L-262.417,804.853L-262.417,793.23L-254.757,793.23L-254.757,788.537L-267.596,788.537L-267.596,804.853L-285.28,804.853L-280.664,788.537L-285.412,788.537L-289.931,804.853L-291.076,804.853L-291.076,788.537L-296.254,788.537L-296.254,804.853L-319.477,804.853L-319.477,795.496C-319.477,793.986 -318.794,793.23 -317.427,793.23L-316.402,793.23C-314.856,793.23 -314.082,793.986 -314.082,795.496L-314.082,799.488L-308.903,799.488L-308.903,795.119C-308.903,790.731 -310.972,788.537 -315.107,788.537L-318.452,788.537C-322.588,788.537 -324.656,790.731 -324.656,795.119L-324.656,804.853L-332.712,804.853L-332.712,809.698L-238.481,809.698C-214.256,795.995 -213.095,779.361 -213.095,779.361C-216.276,774.956 -226.31,774.711 -226.31,774.711L-226.306,774.708ZM-384.864,788.537L-384.864,804.853L-393.926,804.853L-393.926,809.698L-342.703,809.698L-342.703,820.312C-342.703,821.822 -343.386,822.577 -344.753,822.577L-347.397,822.577C-348.943,822.577 -349.716,821.822 -349.716,820.312L-349.716,814.542L-354.895,814.542L-354.895,820.689C-354.895,825.076 -352.809,827.27 -348.637,827.27L-343.782,827.27C-339.61,827.27 -337.524,825.076 -337.524,820.689L-337.524,795.173C-337.524,790.749 -339.592,788.537 -343.728,788.537L-348.691,788.537C-352.827,788.537 -354.895,790.749 -354.895,795.173L-354.895,804.853L-368.141,804.853L-368.141,788.537L-373.32,788.537L-373.32,804.853L-379.685,804.853L-379.685,788.537L-384.864,788.537ZM-347.45,793.23L-345.023,793.23C-343.477,793.23 -342.703,793.986 -342.703,795.496L-342.703,804.853L-349.716,804.853L-349.716,795.496C-349.716,793.986 -348.961,793.23 -347.45,793.23ZM-232.614,812.464C-234.179,813.359 -235.952,814.071 -237.937,814.432L-237.937,827.27L-232.758,827.27L-232.758,813.029L-232.614,812.464ZM-384.864,814.542L-384.864,827.27L-379.685,827.27L-379.685,814.542L-384.864,814.542ZM-373.32,814.542L-373.32,827.27L-368.141,827.27L-368.141,814.542L-373.32,814.542ZM-324.656,814.542L-324.656,820.689C-324.656,825.076 -322.588,827.27 -318.452,827.27L-315.107,827.27C-310.972,827.27 -308.903,825.076 -308.903,820.689L-308.903,818.208L-314.082,818.208L-314.082,820.312C-314.082,821.822 -314.766,822.577 -316.132,822.577L-317.427,822.577C-318.794,822.577 -319.477,821.822 -319.477,820.312L-319.477,814.542L-324.656,814.542ZM-296.254,814.542L-296.254,827.27L-291.076,827.27L-291.076,814.542L-296.254,814.542ZM-288.684,814.542L-284.333,827.27L-279.154,827.27L-283.702,814.542L-288.684,814.542ZM-267.596,814.542L-267.596,827.27L-254.757,827.27L-254.757,822.577L-262.417,822.577L-262.417,814.542L-267.596,814.542Z" style="fill:rgb(230,230,230);fill-rule:nonzero;"/>
        <g id="g4703" transform="matrix(1,0,0,1,0.105256,0)">
            <path id="path4705" d="M-356.959,837.696L-349.257,837.696L-349.257,840.542L-351.537,840.542L-351.537,839.396L-353.481,839.396L-353.481,841.637L-351.034,841.637L-351.034,843.35L-353.481,843.35L-353.481,844.986L-352.168,844.986L-352.168,846.699L-356.959,846.699L-356.959,844.986L-356.16,844.986L-356.16,839.396L-356.959,839.396L-356.959,837.696Z" style="fill:rgb(51,51,51);fill-rule:nonzero;"/>
            <path id="path4707" d="M-332.209,846.699L-337.374,846.699L-337.374,845.012L-336.15,845.012L-336.421,844.136L-339.061,844.136L-339.331,845.012L-338.327,845.012L-338.327,846.699L-342.422,846.699L-342.422,845.012L-341.547,845.012L-339.808,839.358L-340.336,839.358L-340.336,837.696L-335.39,837.696L-333.111,845.012L-332.209,845.012L-332.209,846.699ZM-338.584,842.59L-336.897,842.59L-337.747,839.808L-338.584,842.59Z" style="fill:rgb(51,51,51);fill-rule:nonzero;"/>
            <path id="path4709" d="M-316.918,845.089C-317.142,845.329 -317.391,845.561 -317.665,845.784C-317.94,845.999 -318.241,846.192 -318.567,846.364C-318.893,846.527 -319.245,846.656 -319.623,846.75C-320.001,846.853 -320.4,846.905 -320.821,846.905C-321.508,846.905 -322.13,846.802 -322.688,846.596C-323.246,846.381 -323.723,846.076 -324.118,845.681C-324.513,845.278 -324.822,844.793 -325.045,844.226C-325.26,843.651 -325.367,843.002 -325.367,842.281C-325.367,841.543 -325.243,840.882 -324.994,840.298C-324.745,839.705 -324.427,839.207 -324.041,838.804C-323.654,838.392 -323.234,838.078 -322.778,837.864C-322.315,837.649 -321.873,837.542 -321.452,837.542C-321.134,837.542 -320.859,837.58 -320.628,837.657C-320.387,837.735 -320.185,837.825 -320.022,837.928C-319.859,838.022 -319.735,838.121 -319.649,838.224C-319.554,838.319 -319.494,838.383 -319.468,838.417L-319.172,837.696L-317.15,837.696L-317.15,841.354L-319.456,841.354C-319.464,841.148 -319.499,840.946 -319.559,840.748C-319.619,840.551 -319.705,840.379 -319.816,840.233C-319.919,840.079 -320.057,839.959 -320.228,839.873C-320.392,839.778 -320.589,839.731 -320.821,839.731C-321.053,839.731 -321.263,839.8 -321.452,839.937C-321.641,840.066 -321.804,840.246 -321.941,840.478C-322.07,840.71 -322.173,840.98 -322.25,841.289C-322.319,841.598 -322.353,841.929 -322.353,842.281C-322.353,842.599 -322.315,842.904 -322.238,843.196C-322.152,843.487 -322.031,843.745 -321.877,843.968C-321.714,844.192 -321.516,844.372 -321.284,844.509C-321.053,844.638 -320.782,844.702 -320.473,844.702C-320.207,844.702 -319.954,844.642 -319.713,844.522C-319.473,844.402 -319.262,844.269 -319.082,844.123C-318.902,843.968 -318.756,843.827 -318.644,843.698C-318.524,843.56 -318.451,843.475 -318.425,843.44L-316.918,845.089Z" style="fill:rgb(51,51,51);fill-rule:nonzero;"/>
            <path id="path4711" d="M-309.944,837.696L-302.178,837.696L-302.178,840.542L-304.406,840.542L-304.406,839.396L-306.467,839.396L-306.467,841.174L-304.02,841.174L-304.02,842.886L-306.467,842.886L-306.467,844.986L-304.406,844.986L-304.406,843.788L-302.178,843.788L-302.178,846.699L-309.944,846.699L-309.944,844.986L-309.133,844.986L-309.133,839.396L-309.944,839.396L-309.944,837.696Z" style="fill:rgb(51,51,51);fill-rule:nonzero;"/>
            <path id="path4713" d="M-284.156,846.931C-284.826,846.931 -285.444,846.832 -286.011,846.634C-286.577,846.437 -287.067,846.141 -287.479,845.746C-287.882,845.351 -288.2,844.857 -288.432,844.265C-288.655,843.663 -288.767,842.959 -288.767,842.152C-288.767,841.457 -288.659,840.821 -288.445,840.246C-288.221,839.671 -287.912,839.177 -287.517,838.765C-287.114,838.344 -286.637,838.022 -286.088,837.799C-285.53,837.567 -284.916,837.451 -284.246,837.451C-283.456,837.451 -282.774,837.567 -282.198,837.799C-281.614,838.022 -281.134,838.344 -280.756,838.765C-280.369,839.177 -280.086,839.679 -279.906,840.272C-279.717,840.864 -279.622,841.521 -279.622,842.242C-279.622,842.972 -279.721,843.629 -279.919,844.213C-280.116,844.788 -280.408,845.278 -280.794,845.681C-281.181,846.085 -281.657,846.394 -282.224,846.609C-282.782,846.823 -283.426,846.931 -284.156,846.931ZM-284.156,844.908C-283.95,844.908 -283.77,844.844 -283.615,844.715C-283.452,844.586 -283.314,844.406 -283.203,844.174C-283.083,843.943 -282.992,843.663 -282.932,843.337C-282.872,843.011 -282.842,842.646 -282.842,842.242C-282.842,841.847 -282.872,841.483 -282.932,841.148C-282.984,840.804 -283.07,840.508 -283.19,840.259C-283.302,840.001 -283.448,839.8 -283.628,839.654C-283.808,839.508 -284.023,839.435 -284.272,839.435C-284.469,839.435 -284.65,839.503 -284.813,839.641C-284.967,839.77 -285.105,839.954 -285.225,840.195C-285.337,840.435 -285.427,840.723 -285.495,841.058C-285.555,841.392 -285.586,841.757 -285.586,842.152C-285.586,842.573 -285.551,842.955 -285.482,843.299C-285.405,843.633 -285.306,843.921 -285.186,844.162C-285.057,844.402 -284.907,844.586 -284.735,844.715C-284.555,844.844 -284.362,844.908 -284.156,844.908Z" style="fill:rgb(51,51,51);fill-rule:nonzero;"/>
            <path id="path4715" d="M-272.639,837.696L-264.937,837.696L-264.937,840.542L-267.217,840.542L-267.217,839.396L-269.162,839.396L-269.162,841.637L-266.715,841.637L-266.715,843.35L-269.162,843.35L-269.162,844.986L-267.848,844.986L-267.848,846.699L-272.639,846.699L-272.639,844.986L-271.841,844.986L-271.841,839.396L-272.639,839.396L-272.639,837.696Z" style="fill:rgb(51,51,51);fill-rule:nonzero;"/>
            <path id="path4717" d="M-257.974,837.696L-250.272,837.696L-250.272,840.542L-252.552,840.542L-252.552,839.396L-254.497,839.396L-254.497,841.637L-252.049,841.637L-252.049,843.35L-254.497,843.35L-254.497,844.986L-253.183,844.986L-253.183,846.699L-257.974,846.699L-257.974,844.986L-257.175,844.986L-257.175,839.396L-257.974,839.396L-257.974,837.696Z" style="fill:rgb(51,51,51);fill-rule:nonzero;"/>
        </g>
    </g>
</svg>
